<?xml version="1.0" standalone="no"?><!DOCTYPE svg PUBLIC "-//W3C//DTD SVG 1.1//EN" "http://www.w3.org/Graphics/SVG/1.1/DTD/svg11.dtd"><svg t="1541143816246" class="icon" style="" viewBox="0 0 1024 1024" version="1.1" xmlns="http://www.w3.org/2000/svg" p-id="1345" xmlns:xlink="http://www.w3.org/1999/xlink" width="200" height="200"><defs><style type="text/css"></style></defs><path d="M857.310253 538.929427v-449.960053c0-49.086551-39.882823-88.969374-88.969374-88.969374H412.122503l-66.81225 0.681758-289.406125 288.724367v645.624501c0 49.086551 39.882823 88.969374 88.969374 88.969374h623.467377c49.086551 0 88.969374-39.882823 88.969374-88.969374v-39.882823h-66.81225v17.725699c0 24.543276-19.770972 44.655126-44.655127 44.655126H167.030626c-24.543276 0-44.655126-19.770972-44.655127-44.655126V356.218375h200.436751c49.086551 0 88.969374-39.882823 88.969375-88.969374V66.81225h334.061251c24.543276 0 44.655126 19.770972 44.655127 44.655127v427.802929h66.81225zM353.491345 241.683089c0 26.24767-21.475366 47.723036-47.723036 47.723036h-146.577896l194.300932-194.300932v146.577896z" fill="#707070" p-id="1346"></path><path d="M307.472703 842.652463v-221.912117h53.858855v175.211718H447.233023v46.700399H307.472703zM694.711052 730.844208c0 17.725699-3.067909 33.747004-9.203728 48.063915-6.135819 14.65779-14.316911 26.929427-25.225034 37.155792s-23.520639 18.407457-38.519307 23.861518c-14.998668 5.79494-31.019973 8.521971-48.404794 8.52197s-33.406125-2.727031-48.063915-8.52197c-14.65779-5.79494-27.611185-13.635153-38.178428-23.861518-10.908123-10.226365-19.089214-22.838881-25.225034-37.155792-6.135819-14.65779-9.203728-30.679095-9.203728-48.063915 0-17.725699 3.067909-33.747004 9.203728-48.063915 6.135819-14.316911 14.316911-26.588549 25.225034-36.474035 10.908123-9.885486 23.520639-17.725699 38.178428-23.17976 14.65779-5.454061 30.679095-8.181092 48.063915-8.181092s33.406125 2.727031 48.404794 8.181092c14.998668 5.454061 27.611185 13.294274 38.519307 23.17976 10.908123 9.885486 19.089214 22.157124 25.225034 36.474035 6.135819 13.976032 9.203728 29.997337 9.203728 48.063915z m-57.608522 0c0-9.544607-1.704394-18.748336-4.772304-26.929428-3.067909-8.521971-7.499334-15.680426-12.953395-21.475366-5.454061-5.79494-12.271638-10.567244-20.111851-13.976032-7.840213-3.408788-16.362184-5.113182-25.906791-5.113182s-18.066578 1.704394-25.565912 5.113182c-7.840213 3.408788-14.316911 8.181092-20.111851 13.976032s-9.885486 12.953395-12.953395 21.475366c-3.067909 8.521971-4.431425 17.38482-4.431425 26.929428 0 9.885486 1.704394 19.430093 4.772303 27.611185 3.067909 8.521971 7.499334 15.680426 12.953396 21.816245 5.454061 6.135819 12.271638 10.908123 19.770972 14.316911 7.840213 3.408788 16.362184 5.113182 25.565912 5.113182s18.066578-1.704394 25.565912-5.113182c7.840213-3.408788 14.316911-8.181092 20.111851-14.316911 5.79494-6.135819 9.885486-13.294274 13.294274-21.816245 3.408788-8.521971 4.772304-17.725699 4.772304-27.611185zM889.352863 842.993342c-14.65779 3.408788-30.338216 5.454061-47.382157 5.454061-17.725699 0-34.087883-2.727031-49.086552-8.52197s-27.952064-13.635153-38.519307-23.861518c-10.908123-10.226365-19.089214-22.498003-25.225033-36.814914-6.135819-14.316911-9.203728-30.338216-9.203729-47.723036 0-17.725699 3.067909-33.747004 9.203729-48.404793 6.135819-14.316911 14.65779-26.588549 25.565912-36.814914 10.908123-10.226365 23.520639-18.066578 38.178428-23.520639 14.65779-5.454061 30.338216-8.181092 47.382158-8.181092 17.725699 0 33.747004 2.727031 49.086551 7.840213 14.998668 5.454061 27.270306 12.612517 36.814913 21.475367l-33.747004 38.519307c-5.113182-6.135819-12.271638-10.908123-20.793608-14.998668-8.521971-3.749667-18.407457-5.79494-29.315579-5.79494-9.544607 0-18.066578 1.704394-25.906791 5.113182s-14.998668 8.181092-20.793609 14.316911c-5.79494 6.135819-10.567244 13.635153-13.635153 21.816245-3.408788 8.521971-4.772304 17.725699-4.772304 27.611185 0 10.226365 1.363515 19.770972 4.431425 28.292943 3.067909 8.521971 7.158455 16.021305 12.953396 22.157123 5.79494 6.135819 12.953395 10.908123 21.475366 14.316911s18.066578 5.113182 28.9747 5.113183c6.135819 0 12.271638-0.340879 17.725699-1.363516 5.79494-1.022636 10.908123-2.386152 15.680426-4.431424v-40.564581H835.834887v-43.291611h91.696405V828.335553c-11.249001 6.476698-23.861518 10.908123-38.178429 14.657789z" fill="#707070" p-id="1347"></path></svg>